<svg width="28" height="23" viewBox="0 0 28 23" fill="none" xmlns="http://www.w3.org/2000/svg">
<g clip-path="url(#clip0_22_208)">
<path d="M25.8125 1.17432H1.4375C0.918945 1.17432 0.5 1.59326 0.5 2.11182V20.8618C0.5 21.3804 0.918945 21.7993 1.4375 21.7993H25.8125C26.3311 21.7993 26.75 21.3804 26.75 20.8618V2.11182C26.75 1.59326 26.3311 1.17432 25.8125 1.17432ZM24.6406 4.42041V19.6899H2.60938V4.42041L1.80078 3.79053L2.95215 2.31104L4.20605 3.28662H23.0469L24.3008 2.31104L25.4521 3.79053L24.6406 4.42041ZM23.0469 3.28369L13.625 10.6079L4.20312 3.28369L2.94922 2.30811L1.79785 3.7876L2.60645 4.41748L12.6143 12.1987C12.9021 12.4223 13.2561 12.5437 13.6206 12.5437C13.9851 12.5437 14.3391 12.4223 14.627 12.1987L24.6406 4.42041L25.4492 3.79053L24.2979 2.31104L23.0469 3.28369Z" fill="#FF5722"/>
</g>
<defs>
<clipPath id="clip0_22_208">
<rect width="27" height="22" fill="white" transform="translate(0.5 0.486816)"/>
</clipPath>
</defs>
</svg>
