<svg width="48" height="48" viewBox="0 0 48 48" fill="none" xmlns="http://www.w3.org/2000/svg">
<path fill-rule="evenodd" clip-rule="evenodd" d="M13.315 4.0008C15.549 4.0308 17.141 5.7048 19.155 7.8228C19.653 8.3448 20.191 8.9148 20.793 9.5148C23.711 12.4348 22.881 14.8168 22.211 16.7288C21.483 18.8148 20.853 20.6148 24.625 24.3868C28.397 28.1588 30.195 27.5288 32.279 26.7948C34.193 26.1268 36.569 25.2908 39.493 28.2108C40.087 28.8048 40.647 29.3368 41.167 29.8308C43.293 31.8548 44.973 33.4528 45.0013 35.6928C45.023 37.6008 43.863 39.5488 40.999 42.4128L39.731 41.5528L40.805 42.5988C40.171 43.2488 38.485 44.9808 35.183 45.0008H35.123C30.139 45.0008 23.641 41.0328 15.809 33.2028C7.945 25.3408 3.971 18.8228 4.00083 13.8288C4.019 10.5288 5.749 8.8388 6.399 8.2048L6.45448 8.14421L6.589 8.0088C9.459 5.1388 11.431 3.9588 13.315 4.0008ZM13.277 7.0008H13.261C12.3629 7.0008 10.9989 7.9008 9.09665 9.74859L8.71466 10.1237L8.719 10.1228C8.7214 10.1228 8.68636 10.1602 8.63073 10.217L8.497 10.3508C8.013 10.8208 7.011 11.7988 7.0009 13.8448C6.985 16.7068 8.867 22.0208 17.929 31.0808C26.947 40.0968 32.253 42.0008 35.123 42.0008H35.165C37.211 41.9888 38.187 40.9868 38.657 40.5048C38.799 40.3588 38.915 40.2488 38.997 40.1828C40.991 38.1768 42.011 36.6868 42.0011 35.7288C41.989 34.7528 40.775 33.6008 39.097 32.0028C38.563 31.4968 37.983 30.9428 37.371 30.3308C35.783 28.7488 35.001 29.0188 33.271 29.6268C30.881 30.4648 27.607 31.6128 22.505 26.5068C17.401 21.4048 18.545 18.1308 19.379 15.7388C19.983 14.0108 20.259 13.2248 18.673 11.6368C18.053 11.0168 17.495 10.4288 16.981 9.8888C15.393 8.2208 14.247 7.0148 13.277 7.0008ZM30.4932 11.1158C34.6552 11.9238 37.8692 15.1358 38.6792 19.2998C38.8372 20.1158 38.3072 20.9018 37.4952 21.0598C37.3972 21.0778 37.3012 21.0878 37.2052 21.0878C36.5012 21.0878 35.8752 20.5918 35.7352 19.8758C35.1592 16.9158 32.8772 14.6338 29.9212 14.0598C29.1072 13.9018 28.5772 13.1158 28.7352 12.3018C28.8932 11.4878 29.6932 10.9558 30.4932 11.1158ZM30.3734 4.0122C38.5294 4.9182 44.8634 11.2442 45.7774 19.3982C45.8694 20.2222 45.2774 20.9642 44.4554 21.0562C44.3994 21.0622 44.3414 21.0662 44.2854 21.0662C43.5314 21.0662 42.8834 20.5002 42.7974 19.7342C42.0394 12.9822 36.7954 7.7422 30.0414 6.9922C29.2194 6.9002 28.6254 6.1602 28.7174 5.3362C28.8074 4.5142 29.5414 3.9082 30.3734 4.0122Z" fill="#FF5722"/>
</svg>
