<svg width="48" height="49" viewBox="0 0 48 49" fill="none" xmlns="http://www.w3.org/2000/svg">
<path fill-rule="evenodd" clip-rule="evenodd" d="M25.499 4.5C34.597 4.5 41.999 11.958 41.999 21.126C41.999 32.396 29.087 43.5 25.499 43.5C21.911 43.5 8.999 32.396 8.999 21.126C8.999 11.958 16.401 4.5 25.499 4.5ZM25.499 7.5C18.055 7.5 11.999 13.614 11.999 21.126C11.999 30.684 23.247 39.996 25.499 40.492C27.751 39.994 38.999 30.682 38.999 21.126C38.999 13.614 32.943 7.5 25.499 7.5ZM25.501 14.5C29.085 14.5 32.001 17.416 32.001 21.002C32.001 24.586 29.085 27.5 25.501 27.5C21.917 27.5 19.001 24.586 19.001 21.002C19.001 17.416 21.917 14.5 25.501 14.5ZM25.501 17.5C23.571 17.5 22.001 19.07 22.001 21.002C22.001 22.932 23.571 24.5 25.501 24.5C27.431 24.5 29.001 22.932 29.001 21.002C29.001 19.07 27.431 17.5 25.501 17.5Z" fill="#FF5722"/>
</svg>
