<svg width="48" height="49" viewBox="0 0 48 49" fill="none" xmlns="http://www.w3.org/2000/svg">
<path fill-rule="evenodd" clip-rule="evenodd" d="M33.3178 4.5C39.9778 4.5 44.9998 9.934 44.9998 17.14V30.876C44.9998 34.564 43.6958 37.896 41.3258 40.26C39.1998 42.378 36.4418 43.5 33.3498 43.5H13.6438C10.5578 43.5 7.8018 42.38 5.6738 40.26C3.3038 37.896 1.9998 34.564 1.9998 30.876V17.14C1.9998 9.934 7.0218 4.5 13.6818 4.5H33.3178ZM33.3178 7.5H13.6818C8.6518 7.5 4.9998 11.554 4.9998 17.14V30.876C4.9998 33.762 5.9918 36.34 7.7918 38.134C9.3438 39.684 11.3698 40.5 13.6498 40.5H33.3178C33.3218 40.496 33.3378 40.5 33.3498 40.5C35.6318 40.5 37.6558 39.684 39.2078 38.134C41.0098 36.34 41.9998 33.762 41.9998 30.876V17.14C41.9998 11.554 38.3478 7.5 33.3178 7.5ZM36.4698 16.7576C36.9918 17.3996 36.8938 18.3436 36.2518 18.8676L27.3638 26.0916C26.2398 26.9836 24.8958 27.4296 23.5538 27.4296C22.2158 27.4296 20.8818 26.9876 19.7658 26.1036L10.7958 18.8716C10.1498 18.3516 10.0498 17.4056 10.5678 16.7616C11.0898 16.1196 12.0338 16.0176 12.6778 16.5356L21.6398 23.7596C22.7658 24.6516 24.3518 24.6516 25.4858 23.7516L34.3578 16.5396C35.0018 16.0136 35.9458 16.1136 36.4698 16.7576Z" fill="#FF5722"/>
</svg>
